<?xml version="1.0" encoding="utf-8"?>
<!-- Generator: Adobe Illustrator 21.1.0, SVG Export Plug-In . SVG Version: 6.00 Build 0)  -->
<svg version="1.1" id="Layer_1" xmlns="http://www.w3.org/2000/svg" xmlns:xlink="http://www.w3.org/1999/xlink" x="0px" y="0px"
	 viewBox="0 0 150 150" style="enable-background:new 0 0 150 150;" xml:space="preserve">
<g>
	<path style="fill:#FEDE53;" d="M106.3,98.6c-8.3,0-14.9,6.7-14.9,14.9c0,8.3,6.7,14.9,14.9,14.9s14.9-6.7,14.9-14.9
		C121.3,105.3,114.6,98.6,106.3,98.6z M106.3,120.8c-4,0-7.3-3.3-7.3-7.3s3.3-7.3,7.3-7.3s7.3,3.3,7.3,7.3S110.4,120.8,106.3,120.8z
		"/>
	<path style="fill:#F9A521;" d="M41.4,114.1c-8.3,0-14.9,6.7-14.9,14.9c0,8.3,6.7,14.9,14.9,14.9s14.9-6.7,14.9-14.9
		C56.4,120.8,49.7,114.1,41.4,114.1z M41.4,136.3c-4,0-7.3-3.3-7.3-7.3c0-4,3.3-7.3,7.3-7.3s7.3,3.3,7.3,7.3
		C48.7,133.1,45.4,136.3,41.4,136.3z"/>
	<g>
		
			<rect x="52.3" y="30" transform="matrix(0.8226 -0.5686 0.5686 0.8226 -13.6839 38.945)" style="fill:#44B86A;" width="6.6" height="22.9"/>
	</g>
	<g>
		
			<rect x="89.2" y="81.7" transform="matrix(0.8226 -0.5686 0.5686 0.8226 -36.5232 69.1274)" style="fill:#FEDE53;" width="6.6" height="22.9"/>
	</g>
	<g>
		<polygon style="fill:#F9A521;" points="43.5,115 61.8,83.6 67.5,86.9 49.2,118.3 		"/>
	</g>
	<g>
		<path style="fill:#114676;" d="M45.4,41.4v42.8h-7.7V41.4H45.4z"/>
	</g>
	<g>
		<path style="fill:#114676;" d="M103.8,47.8H91.4v-6.4h32.2v6.4h-12.1v37.1h-7.7V47.8z"/>
	</g>
	<path style="fill:#4DC5E0;" d="M73.4,46.9c-11.5,0-20.8,9.3-20.8,20.8s9.3,20.8,20.8,20.8s20.8-9.3,20.8-20.8S84.9,46.9,73.4,46.9z
		 M73.4,80.8c-7.2,0-13-5.8-13-13c0-7.2,5.8-13,13-13c7.2,0,13,5.8,13,13C86.4,74.9,80.6,80.8,73.4,80.8z"/>
	<path style="fill:#114676;" d="M41.4,6c-8.3,0-14.9,6.7-14.9,14.9c0,8.3,6.7,14.9,14.9,14.9s14.9-6.7,14.9-14.9
		C56.3,12.7,49.6,6,41.4,6z M41.4,28.2c-4,0-7.3-3.3-7.3-7.3s3.3-7.3,7.3-7.3s7.3,3.3,7.3,7.3S45.4,28.2,41.4,28.2z"/>
</g>
</svg>
